#!OML:ASF F:\VICON\USERDATA\INSTALL\rory3\rory3.ASF
:FULLY-SPECIFIED
:DEGREES
97
root 1.047266541225295 17.911324898376805 14.926593102995305 -2.278614705724213 -4.973217212546489 -1.136472418546129
lfemur -11.108173060519126 -3.809692646217803 -21.414271057318228
ltibia 33.77779631428711
lfoot -6.494825917736693 -5.4447298125226125
ltoes -23.69876564373574
rfemur -9.623004104162632 2.428953952732897 23.05880999083208
rtibia 57.89479734643231
rfoot 1.7461942003860562 -10.956631846301939
rtoes 7.594941384210628
lowerback 10.510036877560317 2.045038910994927 1.8740012711537883
upperback 0.24802763985991821 3.055649933748664 1.178012185923854
thorax -5.977702459563943 1.4749573829372484 -0.53945503500003
lowerneck -15.99293292890879 -3.301040393450712 -1.6831756289056319
upperneck 20.627276223594983 -4.474134423386548 1.3621262068624609
head 9.184045670804851 -2.061577144024061 0.14300516968727248
lclavicle 3.0018213595049494e-16 5.614682876325755e-17
lhumerus -33.50709134647305 4.153322207650181 79.87601506921236
lradius 32.570569011295646
lwrist 10.523254175750385
lhand -29.1926344638879 18.460277598187798
lfingers 7.125020000000001
lthumb -2.341472723401517 48.244516996683046
rclavicle 3.053217431254113e-16 5.930376985693789e-17
rhumerus -29.592512741829555 -17.750476741382553 -78.33467798952465
rradius 29.238559746173113
rwrist 1.2761133442695738
rhand -18.834256425087005 24.536426356648406
rfingers 7.125020000000001
rthumb 7.336581731688427 -5.277889688310764
98
root 1.0284123442711899 18.058865706080965 13.15257917732978 -2.154534024498325 -5.005704387339509 -1.299264157710852
lfemur -8.6689309275447 -3.7110092388685425 -21.954969914065185
ltibia 33.99749977519717
lfoot -6.53976473225328 -5.296446815001252
ltoes -23.260634296573336
rfemur -13.712173329341326 2.032121230375302 22.515641832350944
rtibia 61.41683591322595
rfoot 0.8873234816612987 -10.797926623951652
rtoes 7.431281465501367
lowerback 10.906543431755258 1.9023002049735884 1.700019527187372
upperback 0.2330768116432934 2.84488715290723 1.1422745492339899
thorax -6.1310993700296 1.3776980650296429 -0.343387423622576
lowerneck -15.851587225441385 -3.2339712574504476 -1.7665893151425165
upperneck 20.815445668727353 -4.352622823510337 1.4136123614315284
head 9.247969328282963 -2.0189758444916492 0.151190619582395
lclavicle 3.0114365376255505e-16 5.6832033412183e-17
lhumerus -33.35238409510894 4.014361607710937 79.93722580685471
lradius 32.73147630468489
lwrist 10.759009093855774
lhand -29.3360118124938 17.960680253503376
lfingers 7.125020000000001
lthumb -2.47828679233672 47.73751223926926
rclavicle 3.058183317861721e-16 5.959510279334937e-17
rhumerus -29.918836036535698 -17.8416508964742 -78.32826537047849
rradius 29.022970029902865
rwrist 1.4053687164265578
rhand -18.730468479505475 24.301205548957732
rfingers 7.125020000000001
rthumb 7.402410990844881 -5.502355334922362
99
root 1.0020254262417676 18.172379180439904 13.087718309437346 -2.0987134097311504 -5.534496906476659 -1.1824356609553304
lfemur -6.850031973652949 -3.1817454731089767 -22.668013986902313
ltibia 34.83273865524862
lfoot -6.628922968817824 -5.534724781358445
ltoes -23.502525998275672
rfemur -18.18915191729598 2.244859601368898 21.91239225989475
rtibia 63.14761299087706
rfoot -0.21293227099572487 -10.359747830254264
rtoes 7.180014336055676
lowerback 11.379473065837983 1.7067097020760416 1.152460983474152
upperback 0.349552089591866 2.487116534752296 1.0823120813497056
thorax -6.232137502456162 1.2071390789960827 -0.011190742238331497
lowerneck -15.798262411613203 -3.1709597519124055 -1.871431701630434
upperneck 21.013556187304303 -4.224457385105272 1.4644520411712438
head 9.330715424749267 -1.9715823856209278 0.16433486104167444
lclavicle 3.012753119785939e-16 5.692930100609168e-17
lhumerus -32.84176412502248 4.102776770984158 80.11584053305236
lradius 32.56713490559103
lwrist 11.100269127568964
lhand -29.500545420722393 17.542622322973124
lfingers 7.125020000000001
lthumb -2.6452675226852578 47.349731220025674
rclavicle 3.056208804172634e-16 5.940043076439549e-17
rhumerus -30.368096301505716 -18.06361400933384 -78.46482462217242
rradius 29.00412732952638
rwrist 1.3309044491567228
rhand -18.578977712172325 23.986965586805983
rfingers 7.125020000000001
rthumb 7.501122034315613 -5.858909483575246
100
root 1.014140728492833 18.23334122105884 14.310310245169415 -2.3149373474223918 -5.669435799394019 -0.06216980009930362
lfemur -4.574063423523775 -2.462275854483306 -24.12272207388551
ltibia 35.10005253525242
lfoot -5.677180282005057 -6.212191174608267
ltoes -23.840696795171052
rfemur -21.75754195825545 2.083727977584011 20.759317128631835
rtibia 62.30024942877693
rfoot -1.1590095490906185 -10.081237051114247
rtoes 6.950617504437899
lowerback 11.579864341467847 1.468428360961916 -0.4486192241685063
upperback 0.5921181851374284 1.925821742286474 0.9175697826946629
thorax -6.178589946341537 0.93696747558391 0.5362989863255969
lowerneck -15.804479670749402 -3.11454666452885 -1.9980565145353126
upperneck 21.159466266476972 -4.1022104535540285 1.5433085745687487
head 9.404496651971787 -1.9237019464706329 0.1946561189262462
lclavicle 3.0094853528971687e-16 5.670207653731734e-17
lhumerus -32.454406534656414 3.998402621363757 80.28757044203925
lradius 32.415305688611475
lwrist 11.372115416445588
lhand -29.61690492309957 17.3623174937818
lfingers 7.125020000000001
lthumb -2.767186476513118 47.24949945231576
rclavicle 3.0480757006868998e-16 5.880988115074869e-17
rhumerus -30.66743359157866 -18.22871520704431 -78.69902291186827
rradius 28.999630661429173
rwrist 1.1449706748598767
rhand -18.397497255794143 23.621269137976384
rfingers 7.125020000000001
rthumb 7.628953272839539 -6.281292113006501
